<svg version="1.1" xmlns="http://www.w3.org/2000/svg" xmlns:xlink="http://www.w3.org/1999/xlink" viewBox="0 0 172 172"><defs><linearGradient x1="-1106.35775" y1="-1242.96517" x2="132.2465" y2="177.61508" gradientUnits="userSpaceOnUse" id="color-1"><stop offset="0" stop-color="#ffda1c"></stop><stop offset="1" stop-color="#feb705"></stop></linearGradient><radialGradient cx="65.17725" cy="60.13192" r="80.13408" gradientUnits="userSpaceOnUse" id="color-2"><stop offset="0" stop-color="#4b4b4b"></stop><stop offset="0.531" stop-color="#393939"></stop><stop offset="1" stop-color="#252525"></stop></radialGradient></defs><g transform="translate(-9.46,-9.46) scale(1.11,1.11)"><g fill="none" fill-rule="nonzero" stroke="none" stroke-width="1" stroke-linecap="butt" stroke-linejoin="miter" stroke-miterlimit="10" stroke-dasharray="" stroke-dashoffset="0" font-family="none" font-weight="none" font-size="none" text-anchor="none" style="mix-blend-mode: normal"><path d="M0,172v-172h172v172z" fill="none"></path><g><path d="M159.9385,135.61483l-67.63183,-107.71142c0,0 -1.82033,-3.7625 -6.30667,-3.7625c-4.48633,0 -6.30667,3.7625 -6.30667,3.7625l-67.63183,107.71142c0,0 -1.3115,1.75942 -1.3115,4.13517c0,3.95958 3.20708,7.16667 7.16667,7.16667h136.16667c3.95958,0 7.16667,-3.20708 7.16667,-7.16667c0,-2.37575 -1.3115,-4.13517 -1.3115,-4.13517z" fill="url(#color-1)"></path><path d="M86.05017,132.58333c-2.623,0 -4.78733,-0.7955 -6.493,-2.3865c-1.70567,-1.591 -2.5585,-3.51525 -2.5585,-5.77992c0,-2.36142 0.86,-4.29642 2.58358,-5.805c1.72,-1.50858 3.87717,-2.26108 6.46792,-2.26108c2.623,0 4.773,0.76325 6.44283,2.28617c1.67342,1.5265 2.50833,3.45075 2.50833,5.77992c0,2.36142 -0.82775,4.31075 -2.48325,5.85158c-1.6555,1.54083 -3.81267,2.31483 -6.46792,2.31483zM94.01233,63.50025l-1.72358,43.62708c-0.05375,1.333 -1.15025,2.3865 -2.48325,2.3865h-7.80808c-1.33658,0 -2.43308,-1.05708 -2.48325,-2.39367l-1.63042,-43.6235c-0.05375,-1.40825 1.075,-2.58 2.48325,-2.58h11.16567c1.40825,0 2.537,1.17175 2.47967,2.58358z" fill="url(#color-2)"></path></g></g></g></svg>