<svg xmlns="http://www.w3.org/2000/svg" style="margin:auto;background:#fff;display:block;" viewBox="0 0 100 100" preserveAspectRatio="xMidYMid"><g transform="rotate(0 50 50)"><rect x="34" y="1" rx="16" ry="16" width="32" height="32" fill="#20c5ba"><animate attributeName="opacity" values="1;0" keyTimes="0;1" dur="1.7543859649122806s" begin="-1.6959064327485378s" repeatCount="indefinite"></animate></rect></g><g transform="rotate(12 50 50)"><rect x="34" y="1" rx="16" ry="16" width="32" height="32" fill="#20c5ba"><animate attributeName="opacity" values="1;0" keyTimes="0;1" dur="1.7543859649122806s" begin="-1.6374269005847952s" repeatCount="indefinite"></animate></rect></g><g transform="rotate(24 50 50)"><rect x="34" y="1" rx="16" ry="16" width="32" height="32" fill="#20c5ba"><animate attributeName="opacity" values="1;0" keyTimes="0;1" dur="1.7543859649122806s" begin="-1.5789473684210524s" repeatCount="indefinite"></animate></rect></g><g transform="rotate(36 50 50)"><rect x="34" y="1" rx="16" ry="16" width="32" height="32" fill="#20c5ba"><animate attributeName="opacity" values="1;0" keyTimes="0;1" dur="1.7543859649122806s" begin="-1.5204678362573099s" repeatCount="indefinite"></animate></rect></g><g transform="rotate(48 50 50)"><rect x="34" y="1" rx="16" ry="16" width="32" height="32" fill="#20c5ba"><animate attributeName="opacity" values="1;0" keyTimes="0;1" dur="1.7543859649122806s" begin="-1.461988304093567s" repeatCount="indefinite"></animate></rect></g><g transform="rotate(60 50 50)"><rect x="34" y="1" rx="16" ry="16" width="32" height="32" fill="#20c5ba"><animate attributeName="opacity" values="1;0" keyTimes="0;1" dur="1.7543859649122806s" begin="-1.4035087719298245s" repeatCount="indefinite"></animate></rect></g><g transform="rotate(72 50 50)"><rect x="34" y="1" rx="16" ry="16" width="32" height="32" fill="#20c5ba"><animate attributeName="opacity" values="1;0" keyTimes="0;1" dur="1.7543859649122806s" begin="-1.3450292397660817s" repeatCount="indefinite"></animate></rect></g><g transform="rotate(84 50 50)"><rect x="34" y="1" rx="16" ry="16" width="32" height="32" fill="#20c5ba"><animate attributeName="opacity" values="1;0" keyTimes="0;1" dur="1.7543859649122806s" begin="-1.286549707602339s" repeatCount="indefinite"></animate></rect></g><g transform="rotate(96 50 50)"><rect x="34" y="1" rx="16" ry="16" width="32" height="32" fill="#20c5ba"><animate attributeName="opacity" values="1;0" keyTimes="0;1" dur="1.7543859649122806s" begin="-1.2280701754385963s" repeatCount="indefinite"></animate></rect></g><g transform="rotate(108 50 50)"><rect x="34" y="1" rx="16" ry="16" width="32" height="32" fill="#20c5ba"><animate attributeName="opacity" values="1;0" keyTimes="0;1" dur="1.7543859649122806s" begin="-1.1695906432748537s" repeatCount="indefinite"></animate></rect></g><g transform="rotate(120 50 50)"><rect x="34" y="1" rx="16" ry="16" width="32" height="32" fill="#20c5ba"><animate attributeName="opacity" values="1;0" keyTimes="0;1" dur="1.7543859649122806s" begin="-1.111111111111111s" repeatCount="indefinite"></animate></rect></g><g transform="rotate(132 50 50)"><rect x="34" y="1" rx="16" ry="16" width="32" height="32" fill="#20c5ba"><animate attributeName="opacity" values="1;0" keyTimes="0;1" dur="1.7543859649122806s" begin="-1.0526315789473684s" repeatCount="indefinite"></animate></rect></g><g transform="rotate(144 50 50)"><rect x="34" y="1" rx="16" ry="16" width="32" height="32" fill="#20c5ba"><animate attributeName="opacity" values="1;0" keyTimes="0;1" dur="1.7543859649122806s" begin="-0.9941520467836257s" repeatCount="indefinite"></animate></rect></g><g transform="rotate(156 50 50)"><rect x="34" y="1" rx="16" ry="16" width="32" height="32" fill="#20c5ba"><animate attributeName="opacity" values="1;0" keyTimes="0;1" dur="1.7543859649122806s" begin="-0.935672514619883s" repeatCount="indefinite"></animate></rect></g><g transform="rotate(168 50 50)"><rect x="34" y="1" rx="16" ry="16" width="32" height="32" fill="#20c5ba"><animate attributeName="opacity" values="1;0" keyTimes="0;1" dur="1.7543859649122806s" begin="-0.8771929824561403s" repeatCount="indefinite"></animate></rect></g><g transform="rotate(180 50 50)"><rect x="34" y="1" rx="16" ry="16" width="32" height="32" fill="#20c5ba"><animate attributeName="opacity" values="1;0" keyTimes="0;1" dur="1.7543859649122806s" begin="-0.8187134502923976s" repeatCount="indefinite"></animate></rect></g><g transform="rotate(192 50 50)"><rect x="34" y="1" rx="16" ry="16" width="32" height="32" fill="#20c5ba"><animate attributeName="opacity" values="1;0" keyTimes="0;1" dur="1.7543859649122806s" begin="-0.7602339181286549s" repeatCount="indefinite"></animate></rect></g><g transform="rotate(204 50 50)"><rect x="34" y="1" rx="16" ry="16" width="32" height="32" fill="#20c5ba"><animate attributeName="opacity" values="1;0" keyTimes="0;1" dur="1.7543859649122806s" begin="-0.7017543859649122s" repeatCount="indefinite"></animate></rect></g><g transform="rotate(216 50 50)"><rect x="34" y="1" rx="16" ry="16" width="32" height="32" fill="#20c5ba"><animate attributeName="opacity" values="1;0" keyTimes="0;1" dur="1.7543859649122806s" begin="-0.6432748538011696s" repeatCount="indefinite"></animate></rect></g><g transform="rotate(228 50 50)"><rect x="34" y="1" rx="16" ry="16" width="32" height="32" fill="#20c5ba"><animate attributeName="opacity" values="1;0" keyTimes="0;1" dur="1.7543859649122806s" begin="-0.5847953216374269s" repeatCount="indefinite"></animate></rect></g><g transform="rotate(240 50 50)"><rect x="34" y="1" rx="16" ry="16" width="32" height="32" fill="#20c5ba"><animate attributeName="opacity" values="1;0" keyTimes="0;1" dur="1.7543859649122806s" begin="-0.5263157894736842s" repeatCount="indefinite"></animate></rect></g><g transform="rotate(252 50 50)"><rect x="34" y="1" rx="16" ry="16" width="32" height="32" fill="#20c5ba"><animate attributeName="opacity" values="1;0" keyTimes="0;1" dur="1.7543859649122806s" begin="-0.4678362573099415s" repeatCount="indefinite"></animate></rect></g><g transform="rotate(264 50 50)"><rect x="34" y="1" rx="16" ry="16" width="32" height="32" fill="#20c5ba"><animate attributeName="opacity" values="1;0" keyTimes="0;1" dur="1.7543859649122806s" begin="-0.4093567251461988s" repeatCount="indefinite"></animate></rect></g><g transform="rotate(276 50 50)"><rect x="34" y="1" rx="16" ry="16" width="32" height="32" fill="#20c5ba"><animate attributeName="opacity" values="1;0" keyTimes="0;1" dur="1.7543859649122806s" begin="-0.3508771929824561s" repeatCount="indefinite"></animate></rect></g><g transform="rotate(288 50 50)"><rect x="34" y="1" rx="16" ry="16" width="32" height="32" fill="#20c5ba"><animate attributeName="opacity" values="1;0" keyTimes="0;1" dur="1.7543859649122806s" begin="-0.29239766081871343s" repeatCount="indefinite"></animate></rect></g><g transform="rotate(300 50 50)"><rect x="34" y="1" rx="16" ry="16" width="32" height="32" fill="#20c5ba"><animate attributeName="opacity" values="1;0" keyTimes="0;1" dur="1.7543859649122806s" begin="-0.23391812865497075s" repeatCount="indefinite"></animate></rect></g><g transform="rotate(312 50 50)"><rect x="34" y="1" rx="16" ry="16" width="32" height="32" fill="#20c5ba"><animate attributeName="opacity" values="1;0" keyTimes="0;1" dur="1.7543859649122806s" begin="-0.17543859649122806s" repeatCount="indefinite"></animate></rect></g><g transform="rotate(324 50 50)"><rect x="34" y="1" rx="16" ry="16" width="32" height="32" fill="#20c5ba"><animate attributeName="opacity" values="1;0" keyTimes="0;1" dur="1.7543859649122806s" begin="-0.11695906432748537s" repeatCount="indefinite"></animate></rect></g><g transform="rotate(336 50 50)"><rect x="34" y="1" rx="16" ry="16" width="32" height="32" fill="#20c5ba"><animate attributeName="opacity" values="1;0" keyTimes="0;1" dur="1.7543859649122806s" begin="-0.05847953216374269s" repeatCount="indefinite"></animate></rect></g><g transform="rotate(348 50 50)"><rect x="34" y="1" rx="16" ry="16" width="32" height="32" fill="#20c5ba"><animate attributeName="opacity" values="1;0" keyTimes="0;1" dur="1.7543859649122806s" begin="0s" repeatCount="indefinite"></animate></rect></g></svg>